<svg id="OBJECTS" xmlns="http://www.w3.org/2000/svg" xmlns:xlink="http://www.w3.org/1999/xlink" viewBox="0 0 750.18 292.8"><defs><style>.cls-1{fill:#4b6db1;}.cls-2{fill:url(#linear-gradient);}.cls-3{fill:url(#linear-gradient-2);}.cls-4{fill:url(#linear-gradient-3);}.cls-5{fill:url(#linear-gradient-4);}.cls-6{fill:url(#linear-gradient-5);}.cls-7{fill:url(#linear-gradient-6);}</style><linearGradient id="linear-gradient" x1="503.24" y1="452.5" x2="503.24" y2="255.5" gradientUnits="userSpaceOnUse"><stop offset="0" stop-color="#7495c3"/><stop offset="0.28" stop-color="#698abd"/><stop offset="0.77" stop-color="#4b6cac"/><stop offset="1" stop-color="#3b5ca3"/></linearGradient><linearGradient id="linear-gradient-2" x1="179.69" y1="361.04" x2="195.69" y2="248.04" gradientUnits="userSpaceOnUse"><stop offset="0" stop-color="#7495c3"/><stop offset="0.24" stop-color="#6a8abc"/><stop offset="0.66" stop-color="#4f6ca9"/><stop offset="1" stop-color="#355097"/></linearGradient><linearGradient id="linear-gradient-3" x1="369.84" y1="390.8" x2="372.84" y2="297.8" gradientUnits="userSpaceOnUse"><stop offset="0" stop-color="#7495c3"/><stop offset="0.22" stop-color="#6a8abc"/><stop offset="0.61" stop-color="#506caa"/><stop offset="1" stop-color="#304893"/></linearGradient><linearGradient id="linear-gradient-4" x1="388.72" y1="538.45" x2="400.59" y2="358.89" gradientUnits="userSpaceOnUse"><stop offset="0" stop-color="#7495c3"/><stop offset="0.18" stop-color="#6a8aba"/><stop offset="0.51" stop-color="#4f6ca3"/><stop offset="0.93" stop-color="#233c7e"/><stop offset="1" stop-color="#1b3477"/></linearGradient><linearGradient id="linear-gradient-5" x1="238.89" y1="280.41" x2="234.56" y2="291.85" gradientUnits="userSpaceOnUse"><stop offset="0" stop-color="#7495c3"/><stop offset="0.11" stop-color="#7192c1" stop-opacity="0.94"/><stop offset="0.29" stop-color="#6889bc" stop-opacity="0.79"/><stop offset="0.54" stop-color="#5a7bb4" stop-opacity="0.54"/><stop offset="0.83" stop-color="#4768aa" stop-opacity="0.2"/><stop offset="0.99" stop-color="#3b5ca3" stop-opacity="0"/></linearGradient><linearGradient id="linear-gradient-6" x1="321.89" y1="363.15" x2="323.88" y2="333.02" xlink:href="#linear-gradient-4"/></defs><path class="cls-1" d="M.76,192.83s24.23,5.68,33.56,6.84,40,0,40,0l51.28,7.85,70.72,16.65L273,192.83l54.66-11.33,34.67-14.67,38.86,2,39.14,15.34L475,199.67l44,8.5,62,20.66,48.66,4.67s17.34-13.33,28-16.67S695,206.17,695,206.17L750.5,155.5V346.17H.32Z" transform="translate(-0.32 -155.5)"/><path class="cls-2" d="M750.5,213.73s-16.73,28-25.55,28.9-24.58,16.26-24.58,16.26l-20,5.32L651,268.83s-33.83-5.42-53.37-14.45-22.06-22.59-42.86-22.59-22.06-4.51-38.45-.9-38.45,4.52-38.45,4.52-27.1,5.42-44.75-5.42S408.42,206.4,387,205.5s-28.78-12.65-48,0-58.67,34-58.67,34l-5.43,23L256,277v83.87H750.5Z" transform="translate(-0.32 -155.5)"/><path class="cls-3" d="M.5,270.67s19-7.79,34.89-15.58,53.92-24.48,53.92-24.48,47.57-34.49,66.6-34.49,45.2,11.13,45.2,11.13S231.24,215,238.38,215s4.76,8.9,23.79,8.9,25.37-3.34,35.68,2.22,25.38,7.24,25.38,7.24L351,259.54s16.65,16.69,24.58,21.14S381.11,294,381.11,294s-60.26,24.47-96.74,24.47H.5Z" transform="translate(-0.32 -155.5)"/><path class="cls-4" d="M.76,306.22s87.75-34.31,108.67-36.29,27.68-10.55,59.4-2,82.35,24.41,97.2,23.75,32.39-9.23,62.77-15.17,40.5-15.17,68.84-7.26,45.69,20.46,61.32,20.46,17.66-4,32.5,0,25.65,4.61,37.8,5.93,25,3.3,41.18,5.94,56-27.05,79-25.73,42.52,15.17,55.34,19.79,38.9,32.84,38.9,32.84l-66.57,50.29L34.51,383.41Z" transform="translate(-0.32 -155.5)"/><path class="cls-5" d="M63.9,336.61s35.56-6.37,55.73-6.37S169,332.9,195,324.94s30.25-7.43,55.19-4.25,55.32,8.06,55.32,8.06S342,335,361.1,336.61s44.57,0,44.57,0,44.05-8,64.75-5.84,29.72,14.33,53.6,18.58,38.21,7.43,49.89,6.37,28.65-11.15,48.82-16.46,38.74-15.39,88.1,3.72,17.51,30.25,17.51,30.25-149.13,66.34-266.41,72.71-254.74-2.13-254.74-2.13L85.66,413.56Z" transform="translate(-0.32 -155.5)"/><path class="cls-6" d="M161.55,266.19c8.54,4.3,24.57,11.72,41.45,16.14,24.83,6.5,42.38,12.88,56.88,15.55s50.95,11.95,50.79,11.45-31.67-9.95-38-12.33c-5.91-2.21-10.1-3.26-7.06-5.29-15.33.37-65.33-15.25-96.78-23.76C166.24,267.25,163.83,266.68,161.55,266.19Z" transform="translate(-0.32 -155.5)"/><path class="cls-7" d="M397,354.25c-12.25-4.75-31.75-15.75-34-17.49h0l-1.9-.15c-19.11-1.59-55.6-7.86-55.6-7.86s-30.38-4.88-55.32-8.06c0,0,99.57,18.81,105.57,21.69S397,354.25,397,354.25Z" transform="translate(-0.32 -155.5)"/></svg>