<svg id="OBJECTS" xmlns="http://www.w3.org/2000/svg" viewBox="0 0 750 208.69"><defs><style>.cls-1{fill:#102866;}</style></defs><g id="Layer_1" data-name="Layer 1"><path class="cls-1" d="M.5,291.54a72.66,72.66,0,0,1,11.84,0c7.2.51,15.1,17,17,17.5a4.42,4.42,0,0,1,3.26,3.43c.35,1.55,5.15,11.5,7.55,12.7s2.92.17,4.12,1.55,2.75,2.4,2.75.85,2.4-9.61,4.8-6,2.58,11.84,4.63,11.15,4.81-4.29,7.9-4.38,5.32-.77,5.83-1.28,4.29-3.61,7-4.29,3.43-3.09,6.69-3.78,9.78.86,10.46,2.41,2.58,5.66,4.81,6.34,2.4,4.12,4.46,6.52,10.3,6.35,15.27,10.3,7.89,7.21,9.44,7,1.37-2.4,1.37-2.4l1-2.23h2.57l.52,2.06v2.58l-.69,1.54,2.58,2.23s4.8,5.66,8.92,6,3.26-1.72,6.86,0,3.95,1.37,8.58,1.88,7.72-2.23,12-2.06,10.81,1.85,14.42,2.13,6.52-.24,8.75.79,3.26,2.06,6.69,4.29,12.52,3.09,18.53,6.86,20.42,15.1,25.57,16.82,32.08,12.18,36.89,12.52,4.29-1.54,8.75,0,24.71,9.44,37.06,8.93,42.38.9,54.22,0,16-2.94,21.79-5.34,22.82-5.15,29.69-6,11.32-3.77,18.19-3.09,20.41,6.35,26.42,9.1,28.48,8.66,38,6.86,11.32-6.69,22.13-8.75,25.74,2.32,33.72.52,17.5-9,17.5-9,8.23-2.83,10-5.15,10.81-9.78,10.81-9.78,10.55-3.6,19-3.6,16.47-6.18,16.47-6.18,22.91-1,33.21-7.72,18-12.05,18-12.05,33.72-20.9,38.35-26.56,14.16-8.75,14.16-8.75V500H.5Z" transform="translate(-0.5 -291.31)"/></g></svg>