<svg id="OBJECTS" xmlns="http://www.w3.org/2000/svg" xmlns:xlink="http://www.w3.org/1999/xlink" viewBox="0 0 750 205.07"><defs><style>.cls-1{fill:url(#linear-gradient);}.cls-2{fill:url(#linear-gradient-2);}.cls-3{fill:url(#linear-gradient-3);}</style><linearGradient id="linear-gradient" x1="108.3" y1="182.8" x2="75.3" y2="193.3" gradientUnits="userSpaceOnUse"><stop offset="0" stop-color="#9cb3d3"/><stop offset="0.1" stop-color="#9ab1d2" stop-opacity="0.95"/><stop offset="0.28" stop-color="#94add0" stop-opacity="0.81"/><stop offset="0.51" stop-color="#8ba6cc" stop-opacity="0.58"/><stop offset="0.79" stop-color="#7f9dc7" stop-opacity="0.26"/><stop offset="1" stop-color="#7495c3" stop-opacity="0"/></linearGradient><linearGradient id="linear-gradient-2" x1="-310.22" y1="211.28" x2="-311.11" y2="211.28" gradientUnits="userSpaceOnUse"><stop offset="0" stop-color="#9cb3d3"/><stop offset="0.37" stop-color="#91abcf"/><stop offset="1" stop-color="#7495c3"/></linearGradient><linearGradient id="linear-gradient-3" x1="472.44" y1="210.23" x2="492.94" y2="189.23" xlink:href="#linear-gradient"/></defs><g id="Layer_3" data-name="Layer 3"><path class="cls-1" d="M63.9,168.83s12.42,10.67,17.75,13.34S99,191.5,99,191.5l22.1,15.33S90.57,199.5,81.45,191.5A67.41,67.41,0,0,0,63.9,180.17Z" transform="translate(-0.5 -108.75)"/><path class="cls-2" d="M.5,142.73s23.74,10.55,27.85,10.55,23.43-5.86,39.84-10.55,38.67-7.62,38.67-7.62,19.92-18.75,27-18.75,26.95,14.65,29.88,16.41,11.13,2.93,11.13,2.93l8.79-1.76s22.27,4.1,33.4,3.52,19.33-1.76,21.09-1.76,14.06.58,14.06.58l48.63-22.85h14.65s13.48-4.68,15.23-4.68,24,18.11,24,18.11h20.8l9.66,2.39,9.38,8.79,15.82,3.52L439.65,148s35.74,1.76,52.74-4.68,26.36-8.79,26.36-8.79l12.89-1.76,10-4.29,12.31,3.12,20.5,5.27S616,155,618.94,152.69s37.5-8.2,37.5-8.2l24.61-8.21,17-5.46L728.51,138l22,4.69V313.81H.5Z" transform="translate(-0.5 -108.75)"/><path class="cls-3" d="M436.77,187.79s19.17,4.58,23.34,0-5-6.67-5-6.67.83-5.83-1.25-7.92-4.88-7.5-4.88-7.5,10.8,7.92,12.21,8.75-5.16,4.59,0,6.25,10.17,6.67,14.33,7.09,11.26,2.82,12.92,2,20.42-3.29,20.42-3.29-12.5,6.25-12.5,10.42,5.42,7.91,10.42,12.91l16.67,16.67s-23.76-10.83-32.51-17.5S477.61,197,468.86,197,436.77,187.79,436.77,187.79Z" transform="translate(-0.5 -108.75)"/></g></svg>