<svg id="OBJECTS" xmlns="http://www.w3.org/2000/svg" viewBox="0 0 750 108.75"><defs><style>.cls-1{fill:#b8c1ce;opacity:0.3;}</style></defs><path class="cls-1" d="M.76,85.83s35.31,1,51.31,0a321.87,321.87,0,0,0,32.5-4,345,345,0,0,1,64-3.5c34,1.5,81-1,81-1s32,2,56,2,75.5,6.5,75.5,6.5h61l-137-25s-24-9-41.5-10-49.23-1.5-49.23-1.5l-70.27-2.5-51.5-2.5L.5,39.83V0S207.57,30.83,222.07,28.33s47.5-1.5,71-2,25.5-1.5,44-3.5,72.5,17.5,102,22,137,17,162,18.5,149.43.5,149.43.5V93.59s-90.43-6.76-118.43-5.76-89,5.76-89,5.76-46.5,11.24-79,14.24-100-2-126.5-5.5-158-8-186.5-8.74-67.5,6.24-67.5,6.24L.76,108.75Z" transform="translate(-0.5)"/><path class="cls-1" d="M362.07,0s92.5,21.83,122.5,24.33,40-2,71.5-.5,43,0,66.5,2.5,70,8.5,70,8.5l57.93,5.5V0Z" transform="translate(-0.5)"/></svg>